<svg width="296" height="68" viewBox="0 0 296 68" fill="none" xmlns="http://www.w3.org/2000/svg">
<path d="M34 2V12.6667M34 12.6667L22.6095 5.55557M34 12.6667L45.3903 5.55557M34 12.6667V55.3333M34 66V55.3333M34 55.3333L22.6095 62.4443M34 55.3333L45.3903 62.4443M4.40706 18L14.2714 23.3334M14.2714 23.3334L2 29.0153M14.2714 23.3334L13.3903 10.5402M14.2714 23.3334L53.7287 44.6667M53.7287 44.6667L63.5927 50M53.7287 44.6667L54.6097 57.46M53.7287 44.6667L66 38.9847M4.40706 50L14.2714 44.6667M14.2714 44.6667L13.3903 57.46M14.2714 44.6667L2 38.9847M14.2714 44.6667L53.7287 23.3334M53.7287 23.3334L63.5927 18M53.7287 23.3334L66 29.0153M53.7287 23.3334L54.6097 10.5402" stroke="url(#paint0_linear_291_141)" stroke-opacity="0.4" stroke-width="4" stroke-linecap="round" stroke-linejoin="round"/>
<path d="M55.0703 40.6094C55.0703 42.0156 54.8281 43.2734 54.3438 44.3828C53.875 45.4766 53.2266 46.4062 52.3984 47.1719C51.5859 47.9375 50.6094 48.5234 49.4688 48.9297C48.3438 49.3359 47.1406 49.5391 45.8594 49.5391C44.4219 49.5391 43.125 49.2812 41.9688 48.7656C40.8125 48.25 39.8203 47.3984 38.9922 46.2109V49H34.6328V39.0156H38.9922C38.9922 40.0156 39.1641 40.8984 39.5078 41.6641C39.8672 42.4297 40.3359 43.0781 40.9141 43.6094C41.4922 44.125 42.1641 44.5234 42.9297 44.8047C43.6953 45.0703 44.5078 45.2031 45.3672 45.2031C46.8203 45.2031 47.9922 44.8672 48.8828 44.1953C49.7734 43.5234 50.2188 42.4531 50.2188 40.9844C50.2188 40.2188 50.0781 39.5625 49.7969 39.0156C49.5312 38.4688 49.1406 37.9844 48.625 37.5625C48.125 37.125 47.5078 36.75 46.7734 36.4375C46.0391 36.1094 45.2031 35.7656 44.2656 35.4062C43.1562 35.0312 42.0469 34.6094 40.9375 34.1406C39.8281 33.6719 38.8359 33.0938 37.9609 32.4062C37.0859 31.7188 36.375 30.875 35.8281 29.875C35.2812 28.8594 35.0078 27.5859 35.0078 26.0547C35.0078 24.7109 35.25 23.5391 35.7344 22.5391C36.2344 21.5234 36.8906 20.6719 37.7031 19.9844C38.5312 19.2969 39.4844 18.7812 40.5625 18.4375C41.6562 18.0781 42.8125 17.8984 44.0312 17.8984C45.4375 17.8984 46.6406 18.1953 47.6406 18.7891C48.6562 19.3828 49.4375 20.1719 49.9844 21.1562V18.4141H54.3438V27.9297H49.9844C49.9844 26.1328 49.5078 24.7344 48.5547 23.7344C47.6172 22.7188 46.3516 22.2109 44.7578 22.2109C43.3516 22.2109 42.1797 22.5391 41.2422 23.1953C40.3203 23.8516 39.8594 24.7734 39.8594 25.9609C39.8594 26.5703 39.9766 27.0938 40.2109 27.5312C40.4609 27.9531 40.8125 28.3438 41.2656 28.7031C41.7344 29.0469 42.3203 29.375 43.0234 29.6875C43.7266 29.9844 44.5391 30.3125 45.4609 30.6719C46.6172 31.0781 47.7656 31.5391 48.9062 32.0547C50.0469 32.5703 51.0703 33.2031 51.9766 33.9531C52.8828 34.7031 53.625 35.6172 54.2031 36.6953C54.7812 37.7578 55.0703 39.0625 55.0703 40.6094ZM80.8984 49H76.0469V35.5234C76.0469 33.8203 75.7266 32.6406 75.0859 31.9844C74.4453 31.3281 73.5156 31 72.2969 31C70.5 31 69.0312 31.7266 67.8906 33.1797C66.7656 34.6328 66.2031 36.6406 66.2031 39.2031V49H61.3516V27.1562H66.2031V32.6406C66.6875 30.75 67.5859 29.2812 68.8984 28.2344C70.2109 27.1719 71.8281 26.6406 73.75 26.6406C75.9844 26.6406 77.7344 27.3672 79 28.8203C80.2656 30.2734 80.8984 32.5078 80.8984 35.5234V49ZM108.812 38.1016C108.812 39.8047 108.539 41.3516 107.992 42.7422C107.461 44.1328 106.688 45.3359 105.672 46.3516C104.672 47.3516 103.469 48.1328 102.062 48.6953C100.656 49.2578 99.0859 49.5391 97.3516 49.5391C95.6484 49.5391 94.0938 49.2578 92.6875 48.6953C91.2812 48.1328 90.0703 47.3516 89.0547 46.3516C88.0547 45.3359 87.2812 44.1328 86.7344 42.7422C86.2031 41.3516 85.9375 39.8047 85.9375 38.1016C85.9375 36.4453 86.2031 34.9141 86.7344 33.5078C87.2812 32.0859 88.0547 30.8672 89.0547 29.8516C90.0703 28.8203 91.2812 28.0312 92.6875 27.4844C94.0938 26.9219 95.6484 26.6406 97.3516 26.6406C99.0859 26.6406 100.656 26.9219 102.062 27.4844C103.469 28.0312 104.672 28.8203 105.672 29.8516C106.688 30.8672 107.461 32.0859 107.992 33.5078C108.539 34.9141 108.812 36.4453 108.812 38.1016ZM103.984 38.1016C103.984 37.1172 103.828 36.1875 103.516 35.3125C103.219 34.4219 102.781 33.6641 102.203 33.0391C101.625 32.4141 100.922 31.9219 100.094 31.5625C99.2812 31.1875 98.3672 31 97.3516 31C96.3203 31 95.3984 31.1875 94.5859 31.5625C93.7734 31.9219 93.0859 32.4141 92.5234 33.0391C91.9609 33.6641 91.5234 34.4219 91.2109 35.3125C90.9141 36.1875 90.7656 37.1172 90.7656 38.1016C90.7656 39.1328 90.9141 40.0703 91.2109 40.9141C91.5234 41.7578 91.9609 42.5 92.5234 43.1406C93.0859 43.7812 93.7734 44.2812 94.5859 44.6406C95.3984 44.9844 96.3203 45.1562 97.3516 45.1562C98.3672 45.1562 99.2812 44.9844 100.094 44.6406C100.922 44.2812 101.625 43.7812 102.203 43.1406C102.781 42.5 103.219 41.7578 103.516 40.9141C103.828 40.0703 103.984 39.1328 103.984 38.1016ZM135.133 27.1562L131.852 49H125.852L123.555 35.8516L121.211 49H115.211L111.93 27.1562H116.688L118.609 41.7578L120.953 27.1562H126.086L128.453 41.7578L130.375 27.1562H135.133ZM159.508 49H139.961V18.4141H144.812V44.6406H159.508V49ZM178.891 24.3203H172.984V18.4141H178.891V24.3203ZM183.344 49H168.672V44.6406H173.5V31.5391H168.672V27.1562H178.352V44.6406H183.344V49ZM211.914 49H207.062V35.5234C207.062 33.8203 206.742 32.6406 206.102 31.9844C205.461 31.3281 204.531 31 203.312 31C201.516 31 200.047 31.7266 198.906 33.1797C197.781 34.6328 197.219 36.6406 197.219 39.2031V49H192.367V27.1562H197.219V32.6406C197.703 30.75 198.602 29.2812 199.914 28.2344C201.227 27.1719 202.844 26.6406 204.766 26.6406C207 26.6406 208.75 27.3672 210.016 28.8203C211.281 30.2734 211.914 32.5078 211.914 35.5234V49ZM238.117 48.7656C238.117 50.2656 237.859 51.6016 237.344 52.7734C236.828 53.9453 236.102 54.9375 235.164 55.75C234.242 56.5625 233.148 57.1797 231.883 57.6016C230.633 58.0391 229.234 58.2578 227.688 58.2578C223.891 58.2578 220.648 57.1094 217.961 54.8125L220.258 51.0625C222.492 52.9844 224.969 53.9453 227.688 53.9453C229.359 53.9453 230.703 53.5312 231.719 52.7031C232.75 51.8906 233.266 50.6094 233.266 48.8594V46.5156C232.266 47.375 231.305 48.0156 230.383 48.4375C229.461 48.8438 228.391 49.0469 227.172 49.0469C225.766 49.0469 224.461 48.75 223.258 48.1562C222.055 47.5625 221.016 46.7578 220.141 45.7422C219.281 44.7109 218.602 43.5156 218.102 42.1562C217.617 40.7969 217.375 39.3516 217.375 37.8203C217.375 36.2891 217.617 34.8438 218.102 33.4844C218.602 32.1094 219.281 30.9219 220.141 29.9219C221.016 28.9062 222.055 28.1094 223.258 27.5312C224.461 26.9375 225.766 26.6406 227.172 26.6406C228.391 26.6406 229.477 26.8516 230.43 27.2734C231.383 27.6797 232.328 28.2969 233.266 29.125V27.1562H238.117V48.7656ZM233.266 32.9688C232.688 32.3281 231.938 31.8438 231.016 31.5156C230.109 31.1719 229.227 31 228.367 31C226.539 31 225.055 31.6406 223.914 32.9219C222.789 34.2031 222.227 35.8359 222.227 37.8203C222.227 38.8047 222.375 39.7188 222.672 40.5625C222.984 41.3906 223.406 42.1094 223.938 42.7188C224.484 43.3281 225.133 43.8125 225.883 44.1719C226.648 44.5156 227.477 44.6875 228.367 44.6875C229.227 44.6875 230.109 44.5156 231.016 44.1719C231.938 43.8125 232.688 43.3125 233.266 42.6719V32.9688ZM266.031 38.1016C266.031 39.8047 265.758 41.3516 265.211 42.7422C264.68 44.1328 263.906 45.3359 262.891 46.3516C261.891 47.3516 260.688 48.1328 259.281 48.6953C257.875 49.2578 256.305 49.5391 254.57 49.5391C252.867 49.5391 251.312 49.2578 249.906 48.6953C248.5 48.1328 247.289 47.3516 246.273 46.3516C245.273 45.3359 244.5 44.1328 243.953 42.7422C243.422 41.3516 243.156 39.8047 243.156 38.1016C243.156 36.4453 243.422 34.9141 243.953 33.5078C244.5 32.0859 245.273 30.8672 246.273 29.8516C247.289 28.8203 248.5 28.0312 249.906 27.4844C251.312 26.9219 252.867 26.6406 254.57 26.6406C256.305 26.6406 257.875 26.9219 259.281 27.4844C260.688 28.0312 261.891 28.8203 262.891 29.8516C263.906 30.8672 264.68 32.0859 265.211 33.5078C265.758 34.9141 266.031 36.4453 266.031 38.1016ZM261.203 38.1016C261.203 37.1172 261.047 36.1875 260.734 35.3125C260.438 34.4219 260 33.6641 259.422 33.0391C258.844 32.4141 258.141 31.9219 257.312 31.5625C256.5 31.1875 255.586 31 254.57 31C253.539 31 252.617 31.1875 251.805 31.5625C250.992 31.9219 250.305 32.4141 249.742 33.0391C249.18 33.6641 248.742 34.4219 248.43 35.3125C248.133 36.1875 247.984 37.1172 247.984 38.1016C247.984 39.1328 248.133 40.0703 248.43 40.9141C248.742 41.7578 249.18 42.5 249.742 43.1406C250.305 43.7812 250.992 44.2812 251.805 44.6406C252.617 44.9844 253.539 45.1562 254.57 45.1562C255.586 45.1562 256.5 44.9844 257.312 44.6406C258.141 44.2812 258.844 43.7812 259.422 43.1406C260 42.5 260.438 41.7578 260.734 40.9141C261.047 40.0703 261.203 39.1328 261.203 38.1016Z" fill="url(#paint1_linear_291_141)"/>
<defs>
<linearGradient id="paint0_linear_291_141" x1="2" y1="34" x2="66" y2="34" gradientUnits="userSpaceOnUse">
<stop stop-color="#15F5BA"/>
<stop offset="1" stop-color="#F0F3FF"/>
</linearGradient>
<linearGradient id="paint1_linear_291_141" x1="34" y1="33.5" x2="296" y2="33.5" gradientUnits="userSpaceOnUse">
<stop offset="0.19" stop-color="#836FFF"/>
<stop offset="0.81" stop-color="#15F5BA"/>
</linearGradient>
</defs>
</svg>
